<svg xmlns="http://www.w3.org/2000/svg" width="40" height="46" fill="none" viewBox="0 0 40 46"><rect width="40" height="46" fill="#0a7cff" rx="8"/><g fill="#fff" clip-path="url(#a)"><path d="M16.8 19.297v-8.401q0-1.057-.551-1.57-.54-.511-1.663-.512H9.213v-2.56h5.605q2.543 0 3.92 1.253 1.376 1.242 1.376 3.541v8.249zm-7.62 0v-4.468q0-1.33.286-1.94.287-.62.485-.86h2.642a8 8 0 0 0-.154 1.024q-.055.6-.055 1.427v4.817zm18.182 2.793v-2.56q1.434-.056 2.225-.872.802-.826.802-2.403v-4.918h-7.907V8.71H33.8v7.49q0 1.844-.78 3.14-.778 1.285-2.224 1.99-1.435.693-3.434.76"/><path d="M22.618 13.708v11.996h3.276V13.36q0-.85.056-1.464.068-.615.17-1.051h-2.723q-.192.246-.485.883-.294.637-.294 1.979m5.8 10.197h6.484v3.364h-3.83v6.327h-2.654zm.486 10.865-11.352-4.482V26.72l13.52 5.5v2.548z"/><path d="M12.982 21.199q2.655 0 4.01 1.274 1.367 1.275 1.367 3.8v8.306H14.97l-.022-8.585q0-1.095-.486-1.632-.474-.536-1.469-.536h-1.762q-.203.615-.305 1.375a11 11 0 0 0-.101 1.442v3.9q0 2.025-1.073 3.13Q8.69 34.77 6.77 34.77q-.464 0-.848-.045-.383-.033-.824-.1V32.02l.373.023h.372q.825 0 1.243-.425t.418-1.33v-3.343a7.7 7.7 0 0 1 .192-1.598q.192-.894.61-1.52H6.148V21.2zM10.846 38.72v-1.792h.865v1.123h1.94v.67zm3.11-.123-1.351 3.328h-.917l1.614-3.874h.654zM16.405 42q-.495 0-.868-.202a1.47 1.47 0 0 1-.578-.569 1.7 1.7 0 0 1-.204-.852V38.05h.861v2.414q0 .39.217.634.217.24.569.24.351 0 .565-.24.217-.244.217-.634v-1.188q0-.276-.121-.42-.122-.146-.362-.146a1 1 0 0 0-.19.023 2 2 0 0 0-.211.055l-.099-.553q.17-.104.385-.162.213-.062.404-.062.494 0 .776.319.283.318.283.878v1.168q0 .485-.207.852a1.45 1.45 0 0 1-.575.57 1.8 1.8 0 0 1-.862.201m2.864-1.756v-1.522h-.655v-.67h1.52v2.192zm1.637 1.718a2 2 0 0 1-.214-.013v-.777l.135.016q.07.006.128.006.283-.006.49-.104a.94.94 0 0 0 .348-.273 1.2 1.2 0 0 0 .207-.407v-1.688h-.864v-.67h1.716v1.978q0 .311.066.608l.266 1.288h-.802l-.23-1.021h-.023q-.046.29-.217.53a1.3 1.3 0 0 1-.431.384 1.2 1.2 0 0 1-.575.143m3.399-1.718v-1.522h-.654v-.67h1.518v2.192zm1.571-2.193h3.278v.67h-.674v3.205h-.868v-3.204h-1.736zM23.193 6.013a3.3 3.3 0 0 1-1.266-.794 3.3 3.3 0 0 1-.802-1.198c-.135.425-.412.877-.81 1.277-.405.405-.866.687-1.3.823.412.14.846.406 1.23.782.4.39.68.834.822 1.253.13-.437.41-.905.823-1.318.406-.407.868-.689 1.302-.825"/></g><defs><clipPath id="a"><path fill="#fff" d="M4 4h32v38H4z"/></clipPath></defs></svg>