<svg xmlns="http://www.w3.org/2000/svg" width="205" height="100" fill="none" viewBox="0 0 205 100"><path fill="#fff" d="M31.456 16.111q10.353 0 15.639 5.022 5.33 5.021 5.33 14.978v32.73H39.21l-.09-33.831q.001-4.317-1.894-6.432-1.85-2.115-5.726-2.114h-6.873q-.792 2.422-1.19 5.418a43 43 0 0 0-.395 5.683v15.374q0 7.974-4.185 12.335-4.142 4.317-11.63 4.317-1.806 0-3.304-.176-1.498-.133-3.216-.397V58.754q.704.045 1.454.088h1.453q3.217 0 4.846-1.674t1.63-5.242V38.754q0-2.775.749-6.3.75-3.524 2.379-5.99H4.805V16.11zM57.76 26.464V1.178h13.259V16.11h24.933v10.353zm42.818-1.895L82.913 68.842H68.86l21.674-52.73h10.044zm36.17 44.273V34.878q0-4.275-2.202-6.344-2.16-2.07-6.652-2.07h-21.498V16.11h22.423q10.176.001 15.682 5.066 5.507 5.022 5.507 14.317v33.348zm-30.484 0V50.78q0-5.374 1.145-7.842 1.146-2.511 1.939-3.48h10.572q-.396 1.718-.617 4.141t-.22 5.77v19.472zm72.269 1.33V59.823q5.74-.226 8.903-3.525 3.208-3.345 3.208-9.716V26.698h-31.633v-10.62h45.281v30.278q0 7.457-3.118 12.699-3.119 5.197-8.903 8.044-5.739 2.802-13.738 3.073"/><path fill="#fff" d="m159.553 36.284.087 46.636h13.105l-.087-48.037q0-3.435.226-5.92.272-2.486.678-4.248h-10.891q-.768.994-1.943 3.57t-1.175 7.999M.763 85.657V78.41h3.459v4.538h7.76v2.709zm12.442-.5L7.799 98.612h-3.67l6.458-15.664h2.618zm9.798 13.758q-1.986 0-3.472-.816a5.9 5.9 0 0 1-2.315-2.302q-.816-1.486-.815-3.445v-9.404h3.445v9.759q0 1.578.869 2.564.867.975 2.275.974 1.407 0 2.262-.974.868-.986.868-2.564v-4.8q0-1.119-.487-1.698-.486-.591-1.446-.591-.355 0-.763.092a7 7 0 0 0-.842.223l-.394-2.236q.684-.42 1.538-.657.856-.25 1.618-.25 1.973 0 3.104 1.289t1.131 3.55v4.722q0 1.96-.829 3.446a5.8 5.8 0 0 1-2.3 2.303q-1.472.816-3.446.816m11.455-7.104v-6.155H31.84v-2.71h6.077v8.865zm6.549 6.945a7 7 0 0 1-.855-.053v-3.143q.277.04.54.065.276.027.513.027 1.13-.027 1.96-.421a3.76 3.76 0 0 0 1.394-1.105 4.9 4.9 0 0 0 .828-1.644v-6.826H41.93v-2.71h6.865v7.997q0 1.263.264 2.46l1.065 5.208h-3.21l-.92-4.13h-.092a5.05 5.05 0 0 1-.868 2.144 5.1 5.1 0 0 1-1.723 1.552 4.65 4.65 0 0 1-2.302.579m13.599-6.945v-6.155H51.99v-2.71h6.076v8.865zm6.287-8.864h13.112v2.709h-2.696v12.955H67.84V85.657h-6.944zm96.534-75.551c-1.765-.198-3.739-.91-5.607-2.123-1.802-1.171-3.216-2.622-4.121-4.1-.181 1.792-.896 3.807-2.134 5.712-1.255 1.932-2.831 3.418-4.418 4.308 1.728.22 3.643.925 5.459 2.105 1.883 1.223 3.342 2.752 4.239 4.297.151-1.834.872-3.917 2.149-5.883 1.26-1.938 2.842-3.428 4.433-4.316"/></svg>